<svg width="1024" height="1024" viewBox="0 0 1024 1024" xmlns="http://www.w3.org/2000/svg">
  <defs>
    <linearGradient id="bg" x1="0" y1="0" x2="1" y2="1">
      <stop offset="0%" stop-color="#0b141a" />
      <stop offset="100%" stop-color="#111b21" />
    </linearGradient>
  </defs>
  <rect width="1024" height="1024" rx="220" fill="url(#bg)" />
  <circle cx="512" cy="512" r="360" fill="#25d366" />
  <circle cx="512" cy="512" r="300" fill="#182229" />
  <rect x="332" y="268" width="360" height="520" rx="68" fill="#121b21" />
  <rect x="356" y="296" width="312" height="464" rx="48" fill="#f5f7f8" />
  <rect x="404" y="332" width="216" height="24" rx="12" fill="#121b21" opacity="0.7" />
  <rect x="404" y="382" width="216" height="280" rx="90" fill="#25d366" />
  <path d="M488 430a24 24 0 0 1 48 0v144a24 24 0 0 1-48 0z" fill="#ffffff" opacity="0.85" />
  <circle cx="512" cy="716" r="36" fill="#121b21" />
  <circle cx="712" cy="308" r="96" fill="#df3a32" />
  <text x="712" y="320" font-family="'Arial Black', 'Segoe UI', sans-serif" font-size="96" text-anchor="middle" fill="#ffffff">W</text>
</svg>
